<svg xmlns="http://www.w3.org/2000/svg" width="1280" height="760" viewBox="0 0 1280 760" role="img" aria-labelledby="plot-title plot-description">
<title id="plot-title">Why Experiment 01 has no eligible winner</title>
<desc id="plot-description">Specified finite gates passed; every candidate failed binding fertility; ΔNLL was not run</desc>
<style>
            text { font-family: 'DejaVu Sans', Arial, sans-serif; fill: #172033; }
            .title { font-size: 30px; font-weight: 700; }
            .subtitle { font-size: 16px; fill: #5b6475; }
            .axis { font-size: 14px; fill: #374151; }
            .axis-label { font-size: 16px; font-weight: 600; fill: #374151; }
            .body { font-size: 15px; }
            .value { font-size: 14px; font-weight: 700; }
            .legend { font-size: 14px; font-weight: 600; }
            .panel-title { font-size: 18px; font-weight: 700; }
            .cell { font-size: 15px; font-weight: 700; }
            .row-label { font-size: 15px; font-weight: 600; }
            .footnote { font-size: 13px; fill: #5b6475; }
        </style>
<rect x="0" y="0" width="1280" height="760" fill="white"/>
<text x="55.0" y="44.0" class="title" text-anchor="start" >Why Experiment 01 has no eligible winner</text>
<text x="55.0" y="73.0" class="subtitle" text-anchor="start" >Specified finite gates passed; every candidate failed binding fertility; ΔNLL was not run</text>
<text x="560.0" y="117.0" class="panel-title" text-anchor="middle" >alpha</text>
<text x="810.0" y="117.0" class="panel-title" text-anchor="middle" >beta</text>
<text x="1060.0" y="117.0" class="panel-title" text-anchor="middle" >gamma</text>
<text x="55.0" y="165.0" class="row-label" text-anchor="start" >Specified finite gates</text>
<text x="55.0" y="188.0" class="footnote" text-anchor="start" >grammar, corpus and DFA candidate checks</text>
<rect x="439" y="139" width="242" height="71" rx="7" fill="#dcfce7" stroke="white" stroke-width="2"/>
<text x="560.0" y="182.0" class="cell" text-anchor="middle" fill="#166534">PASS</text>
<rect x="689" y="139" width="242" height="71" rx="7" fill="#dcfce7" stroke="white" stroke-width="2"/>
<text x="810.0" y="182.0" class="cell" text-anchor="middle" fill="#166534">PASS</text>
<rect x="939" y="139" width="242" height="71" rx="7" fill="#dcfce7" stroke="white" stroke-width="2"/>
<text x="1060.0" y="182.0" class="cell" text-anchor="middle" fill="#166534">PASS</text>
<text x="55.0" y="244.0" class="row-label" text-anchor="start" >Original collision checks</text>
<text x="55.0" y="267.0" class="footnote" text-anchor="start" >Constraint 2: checks (a)–(f)</text>
<rect x="439" y="218" width="242" height="71" rx="7" fill="#dcfce7" stroke="white" stroke-width="2"/>
<text x="560.0" y="261.0" class="cell" text-anchor="middle" fill="#166534">PASS</text>
<rect x="689" y="218" width="242" height="71" rx="7" fill="#dcfce7" stroke="white" stroke-width="2"/>
<text x="810.0" y="261.0" class="cell" text-anchor="middle" fill="#166534">PASS</text>
<rect x="939" y="218" width="242" height="71" rx="7" fill="#dcfce7" stroke="white" stroke-width="2"/>
<text x="1060.0" y="261.0" class="cell" text-anchor="middle" fill="#166534">PASS</text>
<text x="55.0" y="323.0" class="row-label" text-anchor="start" >Tokenizer fertility</text>
<text x="55.0" y="346.0" class="footnote" text-anchor="start" >binding band [0.95, 1.05]</text>
<rect x="439" y="297" width="242" height="71" rx="7" fill="#fee2e2" stroke="white" stroke-width="2"/>
<text x="560.0" y="340.0" class="cell" text-anchor="middle" fill="#991b1b">FAIL 1.073</text>
<rect x="689" y="297" width="242" height="71" rx="7" fill="#fee2e2" stroke="white" stroke-width="2"/>
<text x="810.0" y="340.0" class="cell" text-anchor="middle" fill="#991b1b">FAIL 1.448</text>
<rect x="939" y="297" width="242" height="71" rx="7" fill="#fee2e2" stroke="white" stroke-width="2"/>
<text x="1060.0" y="340.0" class="cell" text-anchor="middle" fill="#991b1b">FAIL 2.285</text>
<text x="55.0" y="402.0" class="row-label" text-anchor="start" >Proposed diagnostic (g)</text>
<text x="55.0" y="425.0" class="footnote" text-anchor="start" >not original Constraint 2</text>
<rect x="439" y="376" width="242" height="71" rx="7" fill="#dcfce7" stroke="white" stroke-width="2"/>
<text x="560.0" y="419.0" class="cell" text-anchor="middle" fill="#166534">PASS 0</text>
<rect x="689" y="376" width="242" height="71" rx="7" fill="#dcfce7" stroke="white" stroke-width="2"/>
<text x="810.0" y="419.0" class="cell" text-anchor="middle" fill="#166534">PASS 0</text>
<rect x="939" y="376" width="242" height="71" rx="7" fill="#fee2e2" stroke="white" stroke-width="2"/>
<text x="1060.0" y="419.0" class="cell" text-anchor="middle" fill="#991b1b">FAIL 24</text>
<text x="55.0" y="481.0" class="row-label" text-anchor="start" >Base-model ΔNLL</text>
<text x="55.0" y="504.0" class="footnote" text-anchor="start" >primary ranking objective</text>
<rect x="439" y="455" width="242" height="71" rx="7" fill="#e5e7eb" stroke="white" stroke-width="2"/>
<text x="560.0" y="498.0" class="cell" text-anchor="middle" fill="#374151">NOT RUN</text>
<rect x="689" y="455" width="242" height="71" rx="7" fill="#e5e7eb" stroke="white" stroke-width="2"/>
<text x="810.0" y="498.0" class="cell" text-anchor="middle" fill="#374151">NOT RUN</text>
<rect x="939" y="455" width="242" height="71" rx="7" fill="#e5e7eb" stroke="white" stroke-width="2"/>
<text x="1060.0" y="498.0" class="cell" text-anchor="middle" fill="#374151">NOT RUN</text>
<text x="55.0" y="560.0" class="row-label" text-anchor="start" >Eligible winner</text>
<text x="55.0" y="583.0" class="footnote" text-anchor="start" >final Experiment 01 decision</text>
<rect x="439" y="534" width="242" height="71" rx="7" fill="#ffedd5" stroke="white" stroke-width="2"/>
<text x="560.0" y="577.0" class="cell" text-anchor="middle" fill="#9a3412">NO</text>
<rect x="689" y="534" width="242" height="71" rx="7" fill="#ffedd5" stroke="white" stroke-width="2"/>
<text x="810.0" y="577.0" class="cell" text-anchor="middle" fill="#9a3412">NO</text>
<rect x="939" y="534" width="242" height="71" rx="7" fill="#ffedd5" stroke="white" stroke-width="2"/>
<text x="1060.0" y="577.0" class="cell" text-anchor="middle" fill="#9a3412">NO</text>
<text x="55.0" y="688.0" class="footnote" text-anchor="start" >Candidate-specific finite gates passed; repository-wide test suites totaled 149/149.</text>
<text x="55.0" y="710.0" class="footnote" text-anchor="start" >Sources: RESULTS.md §§1–3; constraint1-fertility-decision.md; collisions-check-g-gamma.txt.</text>
</svg>
