<?xml version="1.0" encoding="utf-8" standalone="no"?>
<!DOCTYPE svg PUBLIC "-//W3C//DTD SVG 1.1//EN"
  "http://www.w3.org/Graphics/SVG/1.1/DTD/svg11.dtd">
<svg xmlns:xlink="http://www.w3.org/1999/xlink" width="665.103906pt" height="292.488pt" viewBox="0 0 665.103906 292.488" xmlns="http://www.w3.org/2000/svg" version="1.1">
 <metadata>
  <rdf:RDF xmlns:dc="http://purl.org/dc/elements/1.1/" xmlns:cc="http://creativecommons.org/ns#" xmlns:rdf="http://www.w3.org/1999/02/22-rdf-syntax-ns#">
   <cc:Work>
    <dc:type rdf:resource="http://purl.org/dc/dcmitype/StillImage"/>
    <dc:date>2026-09-14T14:59:25.375306</dc:date>
    <dc:format>image/svg+xml</dc:format>
    <dc:creator>
     <cc:Agent>
      <dc:title>Matplotlib v3.11.2, https://matplotlib.org/</dc:title>
     </cc:Agent>
    </dc:creator>
   </cc:Work>
  </rdf:RDF>
 </metadata>
 <defs>
  <style type="text/css">*{stroke-linejoin: round; stroke-linecap: butt}</style>
 </defs>
 <g id="figure_1">
  <g id="patch_1">
   <path d="M 0 292.488 
L 665.103906 292.488 
L 665.103906 0 
L 0 0 
z
" style="fill: #ffffff"/>
  </g>
  <g id="axes_1">
   <g id="patch_2">
    <path d="M 44.103906 270.288 
L 323.103906 270.288 
L 323.103906 37.44 
L 44.103906 37.44 
z
" style="fill: #ffffff"/>
   </g>
   <g id="patch_3">
    <path d="M 56.785724 270.288 
L 99.058452 270.288 
L 99.058452 242.568 
L 56.785724 242.568 
z
" clip-path="url(#pca32ec2b2d)" style="fill: #1f77b4"/>
   </g>
   <g id="patch_4">
    <path d="M 99.058452 270.288 
L 141.331179 270.288 
L 141.331179 48.528 
L 99.058452 48.528 
z
" clip-path="url(#pca32ec2b2d)" style="fill: #ff7f0e"/>
   </g>
   <g id="patch_5">
    <path d="M 141.331179 270.288 
L 183.603906 270.288 
L 183.603906 103.968 
L 141.331179 103.968 
z
" clip-path="url(#pca32ec2b2d)" style="fill: #2ca02c"/>
   </g>
   <g id="patch_6">
    <path d="M 183.603906 270.288 
L 225.876634 270.288 
L 225.876634 187.128 
L 183.603906 187.128 
z
" clip-path="url(#pca32ec2b2d)" style="fill: #d62728"/>
   </g>
   <g id="patch_7">
    <path d="M 225.876634 270.288 
L 268.149361 270.288 
L 268.149361 159.408 
L 225.876634 159.408 
z
" clip-path="url(#pca32ec2b2d)" style="fill: #9467bd"/>
   </g>
   <g id="patch_8">
    <path d="M 268.149361 270.288 
L 310.422088 270.288 
L 310.422088 131.688 
L 268.149361 131.688 
z
" clip-path="url(#pca32ec2b2d)" style="fill: #8c564b"/>
   </g>
   <g id="matplotlib.axis_1">
    <g id="xtick_1">
     <g id="line2d_1">
      <defs>
       <path id="m5f62a9a42e" d="M 0 0 
L 0 3.5 
" style="stroke: #000000; stroke-width: 0.8"/>
      </defs>
      <g>
       <use xlink:href="#m5f62a9a42e" x="183.603906" y="270.288" style="stroke: #000000; stroke-width: 0.8"/>
      </g>
     </g>
     <g id="text_1">
      <!-- 0.5B -->
      <g transform="translate(174.498281 283.366125) scale(0.08 -0.08)">
       <defs>
        <path id="DejaVuSans-13" d="M 2034 4250 
Q 1547 4250 1301 3770 
Q 1056 3291 1056 2328 
Q 1056 1369 1301 889 
Q 1547 409 2034 409 
Q 2525 409 2770 889 
Q 3016 1369 3016 2328 
Q 3016 3291 2770 3770 
Q 2525 4250 2034 4250 
z
M 2034 4750 
Q 2819 4750 3233 4129 
Q 3647 3509 3647 2328 
Q 3647 1150 3233 529 
Q 2819 -91 2034 -91 
Q 1250 -91 836 529 
Q 422 1150 422 2328 
Q 422 3509 836 4129 
Q 1250 4750 2034 4750 
z
" transform="scale(0.015625)"/>
        <path id="DejaVuSans-11" d="M 684 794 
L 1344 794 
L 1344 0 
L 684 0 
L 684 794 
z
" transform="scale(0.015625)"/>
        <path id="DejaVuSans-18" d="M 691 4666 
L 3169 4666 
L 3169 4134 
L 1269 4134 
L 1269 2991 
Q 1406 3038 1543 3061 
Q 1681 3084 1819 3084 
Q 2600 3084 3056 2656 
Q 3513 2228 3513 1497 
Q 3513 744 3044 326 
Q 2575 -91 1722 -91 
Q 1428 -91 1123 -41 
Q 819 9 494 109 
L 494 744 
Q 775 591 1075 516 
Q 1375 441 1709 441 
Q 2250 441 2565 725 
Q 2881 1009 2881 1497 
Q 2881 1984 2565 2268 
Q 2250 2553 1709 2553 
Q 1456 2553 1204 2497 
Q 953 2441 691 2322 
L 691 4666 
z
" transform="scale(0.015625)"/>
        <path id="DejaVuSans-25" d="M 1259 2228 
L 1259 519 
L 2272 519 
Q 2781 519 3026 730 
Q 3272 941 3272 1375 
Q 3272 1813 3026 2020 
Q 2781 2228 2272 2228 
L 1259 2228 
z
M 1259 4147 
L 1259 2741 
L 2194 2741 
Q 2656 2741 2882 2914 
Q 3109 3088 3109 3444 
Q 3109 3797 2882 3972 
Q 2656 4147 2194 4147 
L 1259 4147 
z
M 628 4666 
L 2241 4666 
Q 2963 4666 3353 4366 
Q 3744 4066 3744 3513 
Q 3744 3084 3544 2831 
Q 3344 2578 2956 2516 
Q 3422 2416 3680 2098 
Q 3938 1781 3938 1306 
Q 3938 681 3513 340 
Q 3088 0 2303 0 
L 628 0 
L 628 4666 
z
" transform="scale(0.015625)"/>
       </defs>
       <use xlink:href="#DejaVuSans-13"/>
       <use xlink:href="#DejaVuSans-11" transform="translate(63.625 0)"/>
       <use xlink:href="#DejaVuSans-18" transform="translate(95.40625 0)"/>
       <use xlink:href="#DejaVuSans-25" transform="translate(159.03125 0)"/>
      </g>
     </g>
    </g>
   </g>
   <g id="matplotlib.axis_2">
    <g id="ytick_1">
     <g id="line2d_2">
      <path d="M 44.103906 270.288 
L 323.103906 270.288 
" clip-path="url(#pca32ec2b2d)" style="fill: none; stroke: #b0b0b0; stroke-opacity: 0.3; stroke-width: 0.8; stroke-linecap: square"/>
     </g>
     <g id="line2d_3">
      <defs>
       <path id="m2cf3505a25" d="M 0 0 
L -3.5 0 
" style="stroke: #000000; stroke-width: 0.8"/>
      </defs>
      <g>
       <use xlink:href="#m2cf3505a25" x="44.103906" y="270.288" style="stroke: #000000; stroke-width: 0.8"/>
      </g>
     </g>
     <g id="text_2">
      <!-- 0.0 -->
      <g transform="translate(21.200781 274.086828) scale(0.1 -0.1)">
       <use xlink:href="#DejaVuSans-13"/>
       <use xlink:href="#DejaVuSans-11" transform="translate(63.625 0)"/>
       <use xlink:href="#DejaVuSans-13" transform="translate(95.40625 0)"/>
      </g>
     </g>
    </g>
    <g id="ytick_2">
     <g id="line2d_4">
      <path d="M 44.103906 225.936 
L 323.103906 225.936 
" clip-path="url(#pca32ec2b2d)" style="fill: none; stroke: #b0b0b0; stroke-opacity: 0.3; stroke-width: 0.8; stroke-linecap: square"/>
     </g>
     <g id="line2d_5">
      <g>
       <use xlink:href="#m2cf3505a25" x="44.103906" y="225.936" style="stroke: #000000; stroke-width: 0.8"/>
      </g>
     </g>
     <g id="text_3">
      <!-- 0.2 -->
      <g transform="translate(21.200781 229.734828) scale(0.1 -0.1)">
       <defs>
        <path id="DejaVuSans-15" d="M 1228 531 
L 3431 531 
L 3431 0 
L 469 0 
L 469 531 
Q 828 903 1448 1529 
Q 2069 2156 2228 2338 
Q 2531 2678 2651 2914 
Q 2772 3150 2772 3378 
Q 2772 3750 2511 3984 
Q 2250 4219 1831 4219 
Q 1534 4219 1204 4116 
Q 875 4013 500 3803 
L 500 4441 
Q 881 4594 1212 4672 
Q 1544 4750 1819 4750 
Q 2544 4750 2975 4387 
Q 3406 4025 3406 3419 
Q 3406 3131 3298 2873 
Q 3191 2616 2906 2266 
Q 2828 2175 2409 1742 
Q 1991 1309 1228 531 
z
" transform="scale(0.015625)"/>
       </defs>
       <use xlink:href="#DejaVuSans-13"/>
       <use xlink:href="#DejaVuSans-11" transform="translate(63.625 0)"/>
       <use xlink:href="#DejaVuSans-15" transform="translate(95.40625 0)"/>
      </g>
     </g>
    </g>
    <g id="ytick_3">
     <g id="line2d_6">
      <path d="M 44.103906 181.584 
L 323.103906 181.584 
" clip-path="url(#pca32ec2b2d)" style="fill: none; stroke: #b0b0b0; stroke-opacity: 0.3; stroke-width: 0.8; stroke-linecap: square"/>
     </g>
     <g id="line2d_7">
      <g>
       <use xlink:href="#m2cf3505a25" x="44.103906" y="181.584" style="stroke: #000000; stroke-width: 0.8"/>
      </g>
     </g>
     <g id="text_4">
      <!-- 0.4 -->
      <g transform="translate(21.200781 185.382828) scale(0.1 -0.1)">
       <defs>
        <path id="DejaVuSans-17" d="M 2419 4116 
L 825 1625 
L 2419 1625 
L 2419 4116 
z
M 2253 4666 
L 3047 4666 
L 3047 1625 
L 3713 1625 
L 3713 1100 
L 3047 1100 
L 3047 0 
L 2419 0 
L 2419 1100 
L 313 1100 
L 313 1709 
L 2253 4666 
z
" transform="scale(0.015625)"/>
       </defs>
       <use xlink:href="#DejaVuSans-13"/>
       <use xlink:href="#DejaVuSans-11" transform="translate(63.625 0)"/>
       <use xlink:href="#DejaVuSans-17" transform="translate(95.40625 0)"/>
      </g>
     </g>
    </g>
    <g id="ytick_4">
     <g id="line2d_8">
      <path d="M 44.103906 137.232 
L 323.103906 137.232 
" clip-path="url(#pca32ec2b2d)" style="fill: none; stroke: #b0b0b0; stroke-opacity: 0.3; stroke-width: 0.8; stroke-linecap: square"/>
     </g>
     <g id="line2d_9">
      <g>
       <use xlink:href="#m2cf3505a25" x="44.103906" y="137.232" style="stroke: #000000; stroke-width: 0.8"/>
      </g>
     </g>
     <g id="text_5">
      <!-- 0.6 -->
      <g transform="translate(21.200781 141.030828) scale(0.1 -0.1)">
       <defs>
        <path id="DejaVuSans-19" d="M 2113 2584 
Q 1688 2584 1439 2293 
Q 1191 2003 1191 1497 
Q 1191 994 1439 701 
Q 1688 409 2113 409 
Q 2538 409 2786 701 
Q 3034 994 3034 1497 
Q 3034 2003 2786 2293 
Q 2538 2584 2113 2584 
z
M 3366 4563 
L 3366 3988 
Q 3128 4100 2886 4159 
Q 2644 4219 2406 4219 
Q 1781 4219 1451 3797 
Q 1122 3375 1075 2522 
Q 1259 2794 1537 2939 
Q 1816 3084 2150 3084 
Q 2853 3084 3261 2657 
Q 3669 2231 3669 1497 
Q 3669 778 3244 343 
Q 2819 -91 2113 -91 
Q 1303 -91 875 529 
Q 447 1150 447 2328 
Q 447 3434 972 4092 
Q 1497 4750 2381 4750 
Q 2619 4750 2861 4703 
Q 3103 4656 3366 4563 
z
" transform="scale(0.015625)"/>
       </defs>
       <use xlink:href="#DejaVuSans-13"/>
       <use xlink:href="#DejaVuSans-11" transform="translate(63.625 0)"/>
       <use xlink:href="#DejaVuSans-19" transform="translate(95.40625 0)"/>
      </g>
     </g>
    </g>
    <g id="ytick_5">
     <g id="line2d_10">
      <path d="M 44.103906 92.88 
L 323.103906 92.88 
" clip-path="url(#pca32ec2b2d)" style="fill: none; stroke: #b0b0b0; stroke-opacity: 0.3; stroke-width: 0.8; stroke-linecap: square"/>
     </g>
     <g id="line2d_11">
      <g>
       <use xlink:href="#m2cf3505a25" x="44.103906" y="92.88" style="stroke: #000000; stroke-width: 0.8"/>
      </g>
     </g>
     <g id="text_6">
      <!-- 0.8 -->
      <g transform="translate(21.200781 96.678828) scale(0.1 -0.1)">
       <defs>
        <path id="DejaVuSans-1b" d="M 2034 2216 
Q 1584 2216 1326 1975 
Q 1069 1734 1069 1313 
Q 1069 891 1326 650 
Q 1584 409 2034 409 
Q 2484 409 2743 651 
Q 3003 894 3003 1313 
Q 3003 1734 2745 1975 
Q 2488 2216 2034 2216 
z
M 1403 2484 
Q 997 2584 770 2862 
Q 544 3141 544 3541 
Q 544 4100 942 4425 
Q 1341 4750 2034 4750 
Q 2731 4750 3128 4425 
Q 3525 4100 3525 3541 
Q 3525 3141 3298 2862 
Q 3072 2584 2669 2484 
Q 3125 2378 3379 2068 
Q 3634 1759 3634 1313 
Q 3634 634 3220 271 
Q 2806 -91 2034 -91 
Q 1263 -91 848 271 
Q 434 634 434 1313 
Q 434 1759 690 2068 
Q 947 2378 1403 2484 
z
M 1172 3481 
Q 1172 3119 1398 2916 
Q 1625 2713 2034 2713 
Q 2441 2713 2670 2916 
Q 2900 3119 2900 3481 
Q 2900 3844 2670 4047 
Q 2441 4250 2034 4250 
Q 1625 4250 1398 4047 
Q 1172 3844 1172 3481 
z
" transform="scale(0.015625)"/>
       </defs>
       <use xlink:href="#DejaVuSans-13"/>
       <use xlink:href="#DejaVuSans-11" transform="translate(63.625 0)"/>
       <use xlink:href="#DejaVuSans-1b" transform="translate(95.40625 0)"/>
      </g>
     </g>
    </g>
    <g id="ytick_6">
     <g id="line2d_12">
      <path d="M 44.103906 48.528 
L 323.103906 48.528 
" clip-path="url(#pca32ec2b2d)" style="fill: none; stroke: #b0b0b0; stroke-opacity: 0.3; stroke-width: 0.8; stroke-linecap: square"/>
     </g>
     <g id="line2d_13">
      <g>
       <use xlink:href="#m2cf3505a25" x="44.103906" y="48.528" style="stroke: #000000; stroke-width: 0.8"/>
      </g>
     </g>
     <g id="text_7">
      <!-- 1.0 -->
      <g transform="translate(21.200781 52.326828) scale(0.1 -0.1)">
       <defs>
        <path id="DejaVuSans-14" d="M 794 531 
L 1825 531 
L 1825 4091 
L 703 3866 
L 703 4441 
L 1819 4666 
L 2450 4666 
L 2450 531 
L 3481 531 
L 3481 0 
L 794 0 
L 794 531 
z
" transform="scale(0.015625)"/>
       </defs>
       <use xlink:href="#DejaVuSans-14"/>
       <use xlink:href="#DejaVuSans-11" transform="translate(63.625 0)"/>
       <use xlink:href="#DejaVuSans-13" transform="translate(95.40625 0)"/>
      </g>
     </g>
    </g>
    <g id="text_8">
     <!-- proportion -->
     <g transform="translate(14.798438 179.909312) rotate(-90) scale(0.1 -0.1)">
      <defs>
       <path id="DejaVuSans-53" d="M 1159 525 
L 1159 -1331 
L 581 -1331 
L 581 3500 
L 1159 3500 
L 1159 2969 
Q 1341 3281 1617 3432 
Q 1894 3584 2278 3584 
Q 2916 3584 3314 3078 
Q 3713 2572 3713 1747 
Q 3713 922 3314 415 
Q 2916 -91 2278 -91 
Q 1894 -91 1617 61 
Q 1341 213 1159 525 
z
M 3116 1747 
Q 3116 2381 2855 2742 
Q 2594 3103 2138 3103 
Q 1681 3103 1420 2742 
Q 1159 2381 1159 1747 
Q 1159 1113 1420 752 
Q 1681 391 2138 391 
Q 2594 391 2855 752 
Q 3116 1113 3116 1747 
z
" transform="scale(0.015625)"/>
       <path id="DejaVuSans-55" d="M 2631 2963 
Q 2534 3019 2420 3045 
Q 2306 3072 2169 3072 
Q 1681 3072 1420 2755 
Q 1159 2438 1159 1844 
L 1159 0 
L 581 0 
L 581 3500 
L 1159 3500 
L 1159 2956 
Q 1341 3275 1631 3429 
Q 1922 3584 2338 3584 
Q 2397 3584 2469 3576 
Q 2541 3569 2628 3553 
L 2631 2963 
z
" transform="scale(0.015625)"/>
       <path id="DejaVuSans-52" d="M 1959 3097 
Q 1497 3097 1228 2736 
Q 959 2375 959 1747 
Q 959 1119 1226 758 
Q 1494 397 1959 397 
Q 2419 397 2687 759 
Q 2956 1122 2956 1747 
Q 2956 2369 2687 2733 
Q 2419 3097 1959 3097 
z
M 1959 3584 
Q 2709 3584 3137 3096 
Q 3566 2609 3566 1747 
Q 3566 888 3137 398 
Q 2709 -91 1959 -91 
Q 1206 -91 779 398 
Q 353 888 353 1747 
Q 353 2609 779 3096 
Q 1206 3584 1959 3584 
z
" transform="scale(0.015625)"/>
       <path id="DejaVuSans-57" d="M 1172 4494 
L 1172 3500 
L 2356 3500 
L 2356 3053 
L 1172 3053 
L 1172 1153 
Q 1172 725 1289 603 
Q 1406 481 1766 481 
L 2356 481 
L 2356 0 
L 1766 0 
Q 1100 0 847 248 
Q 594 497 594 1153 
L 594 3053 
L 172 3053 
L 172 3500 
L 594 3500 
L 594 4494 
L 1172 4494 
z
" transform="scale(0.015625)"/>
       <path id="DejaVuSans-4c" d="M 603 3500 
L 1178 3500 
L 1178 0 
L 603 0 
L 603 3500 
z
M 603 4863 
L 1178 4863 
L 1178 4134 
L 603 4134 
L 603 4863 
z
" transform="scale(0.015625)"/>
       <path id="DejaVuSans-51" d="M 3513 2113 
L 3513 0 
L 2938 0 
L 2938 2094 
Q 2938 2591 2744 2837 
Q 2550 3084 2163 3084 
Q 1697 3084 1428 2787 
Q 1159 2491 1159 1978 
L 1159 0 
L 581 0 
L 581 3500 
L 1159 3500 
L 1159 2956 
Q 1366 3272 1645 3428 
Q 1925 3584 2291 3584 
Q 2894 3584 3203 3211 
Q 3513 2838 3513 2113 
z
" transform="scale(0.015625)"/>
      </defs>
      <use xlink:href="#DejaVuSans-53"/>
      <use xlink:href="#DejaVuSans-55" transform="translate(63.484375 0)"/>
      <use xlink:href="#DejaVuSans-52" transform="translate(102.390625 0)"/>
      <use xlink:href="#DejaVuSans-53" transform="translate(163.578125 0)"/>
      <use xlink:href="#DejaVuSans-52" transform="translate(227.0625 0)"/>
      <use xlink:href="#DejaVuSans-55" transform="translate(288.25 0)"/>
      <use xlink:href="#DejaVuSans-57" transform="translate(329.359375 0)"/>
      <use xlink:href="#DejaVuSans-4c" transform="translate(368.5625 0)"/>
      <use xlink:href="#DejaVuSans-52" transform="translate(396.34375 0)"/>
      <use xlink:href="#DejaVuSans-51" transform="translate(457.53125 0)"/>
     </g>
    </g>
   </g>
   <g id="patch_9">
    <path d="M 44.103906 270.288 
L 44.103906 37.44 
" style="fill: none; stroke: #000000; stroke-width: 0.8; stroke-linejoin: miter; stroke-linecap: square"/>
   </g>
   <g id="patch_10">
    <path d="M 323.103906 270.288 
L 323.103906 37.44 
" style="fill: none; stroke: #000000; stroke-width: 0.8; stroke-linejoin: miter; stroke-linecap: square"/>
   </g>
   <g id="patch_11">
    <path d="M 44.103906 270.288 
L 323.103906 270.288 
" style="fill: none; stroke: #000000; stroke-width: 0.8; stroke-linejoin: miter; stroke-linecap: square"/>
   </g>
   <g id="patch_12">
    <path d="M 44.103906 37.44 
L 323.103906 37.44 
" style="fill: none; stroke: #000000; stroke-width: 0.8; stroke-linejoin: miter; stroke-linecap: square"/>
   </g>
   <g id="text_9">
    <!-- bare -->
    <g transform="translate(170.091719 31.44) scale(0.12 -0.12)">
     <defs>
      <path id="DejaVuSans-45" d="M 3116 1747 
Q 3116 2381 2855 2742 
Q 2594 3103 2138 3103 
Q 1681 3103 1420 2742 
Q 1159 2381 1159 1747 
Q 1159 1113 1420 752 
Q 1681 391 2138 391 
Q 2594 391 2855 752 
Q 3116 1113 3116 1747 
z
M 1159 2969 
Q 1341 3281 1617 3432 
Q 1894 3584 2278 3584 
Q 2916 3584 3314 3078 
Q 3713 2572 3713 1747 
Q 3713 922 3314 415 
Q 2916 -91 2278 -91 
Q 1894 -91 1617 61 
Q 1341 213 1159 525 
L 1159 0 
L 581 0 
L 581 4863 
L 1159 4863 
L 1159 2969 
z
" transform="scale(0.015625)"/>
      <path id="DejaVuSans-44" d="M 2194 1759 
Q 1497 1759 1228 1600 
Q 959 1441 959 1056 
Q 959 750 1161 570 
Q 1363 391 1709 391 
Q 2188 391 2477 730 
Q 2766 1069 2766 1631 
L 2766 1759 
L 2194 1759 
z
M 3341 1997 
L 3341 0 
L 2766 0 
L 2766 531 
Q 2569 213 2275 61 
Q 1981 -91 1556 -91 
Q 1019 -91 701 211 
Q 384 513 384 1019 
Q 384 1609 779 1909 
Q 1175 2209 1959 2209 
L 2766 2209 
L 2766 2266 
Q 2766 2663 2505 2880 
Q 2244 3097 1772 3097 
Q 1472 3097 1187 3025 
Q 903 2953 641 2809 
L 641 3341 
Q 956 3463 1253 3523 
Q 1550 3584 1831 3584 
Q 2591 3584 2966 3190 
Q 3341 2797 3341 1997 
z
" transform="scale(0.015625)"/>
      <path id="DejaVuSans-48" d="M 3597 1894 
L 3597 1613 
L 953 1613 
Q 991 1019 1311 708 
Q 1631 397 2203 397 
Q 2534 397 2845 478 
Q 3156 559 3463 722 
L 3463 178 
Q 3153 47 2828 -22 
Q 2503 -91 2169 -91 
Q 1331 -91 842 396 
Q 353 884 353 1716 
Q 353 2575 817 3079 
Q 1281 3584 2069 3584 
Q 2775 3584 3186 3129 
Q 3597 2675 3597 1894 
z
M 3022 2063 
Q 3016 2534 2758 2815 
Q 2500 3097 2075 3097 
Q 1594 3097 1305 2825 
Q 1016 2553 972 2059 
L 3022 2063 
z
" transform="scale(0.015625)"/>
     </defs>
     <use xlink:href="#DejaVuSans-45"/>
     <use xlink:href="#DejaVuSans-44" transform="translate(63.484375 0)"/>
     <use xlink:href="#DejaVuSans-55" transform="translate(124.765625 0)"/>
     <use xlink:href="#DejaVuSans-48" transform="translate(163.671875 0)"/>
    </g>
   </g>
   <g id="legend_1">
    <g id="patch_13">
     <path d="M 157.841406 69.241406 
L 318.903906 69.241406 
Q 320.103906 69.241406 320.103906 68.041406 
L 320.103906 41.64 
Q 320.103906 40.44 318.903906 40.44 
L 157.841406 40.44 
Q 156.641406 40.44 156.641406 41.64 
L 156.641406 68.041406 
Q 156.641406 69.241406 157.841406 69.241406 
z
" style="fill: #ffffff; opacity: 0.8; stroke: #cccccc; stroke-linejoin: miter"/>
    </g>
    <g id="patch_14">
     <path d="M 159.041406 47.399063 
L 171.041406 47.399063 
L 171.041406 43.199063 
L 159.041406 43.199063 
z
" style="fill: #1f77b4"/>
    </g>
    <g id="text_10">
     <!-- semantic_accuracy -->
     <g transform="translate(175.841406 47.399063) scale(0.06 -0.06)">
      <defs>
       <path id="DejaVuSans-56" d="M 2834 3397 
L 2834 2853 
Q 2591 2978 2328 3040 
Q 2066 3103 1784 3103 
Q 1356 3103 1142 2972 
Q 928 2841 928 2578 
Q 928 2378 1081 2264 
Q 1234 2150 1697 2047 
L 1894 2003 
Q 2506 1872 2764 1633 
Q 3022 1394 3022 966 
Q 3022 478 2636 193 
Q 2250 -91 1575 -91 
Q 1294 -91 989 -36 
Q 684 19 347 128 
L 347 722 
Q 666 556 975 473 
Q 1284 391 1588 391 
Q 1994 391 2212 530 
Q 2431 669 2431 922 
Q 2431 1156 2273 1281 
Q 2116 1406 1581 1522 
L 1381 1569 
Q 847 1681 609 1914 
Q 372 2147 372 2553 
Q 372 3047 722 3315 
Q 1072 3584 1716 3584 
Q 2034 3584 2315 3537 
Q 2597 3491 2834 3397 
z
" transform="scale(0.015625)"/>
       <path id="DejaVuSans-50" d="M 3328 2828 
Q 3544 3216 3844 3400 
Q 4144 3584 4550 3584 
Q 5097 3584 5394 3201 
Q 5691 2819 5691 2113 
L 5691 0 
L 5113 0 
L 5113 2094 
Q 5113 2597 4934 2840 
Q 4756 3084 4391 3084 
Q 3944 3084 3684 2787 
Q 3425 2491 3425 1978 
L 3425 0 
L 2847 0 
L 2847 2094 
Q 2847 2600 2669 2842 
Q 2491 3084 2119 3084 
Q 1678 3084 1418 2786 
Q 1159 2488 1159 1978 
L 1159 0 
L 581 0 
L 581 3500 
L 1159 3500 
L 1159 2956 
Q 1356 3278 1631 3431 
Q 1906 3584 2284 3584 
Q 2666 3584 2933 3390 
Q 3200 3197 3328 2828 
z
" transform="scale(0.015625)"/>
       <path id="DejaVuSans-46" d="M 3122 3366 
L 3122 2828 
Q 2878 2963 2633 3030 
Q 2388 3097 2138 3097 
Q 1578 3097 1268 2742 
Q 959 2388 959 1747 
Q 959 1106 1268 751 
Q 1578 397 2138 397 
Q 2388 397 2633 464 
Q 2878 531 3122 666 
L 3122 134 
Q 2881 22 2623 -34 
Q 2366 -91 2075 -91 
Q 1284 -91 818 406 
Q 353 903 353 1747 
Q 353 2603 823 3093 
Q 1294 3584 2113 3584 
Q 2378 3584 2631 3529 
Q 2884 3475 3122 3366 
z
" transform="scale(0.015625)"/>
       <path id="DejaVuSans-42" d="M 3263 -1063 
L 3263 -1509 
L -63 -1509 
L -63 -1063 
L 3263 -1063 
z
" transform="scale(0.015625)"/>
       <path id="DejaVuSans-58" d="M 544 1381 
L 544 3500 
L 1119 3500 
L 1119 1403 
Q 1119 906 1312 657 
Q 1506 409 1894 409 
Q 2359 409 2629 706 
Q 2900 1003 2900 1516 
L 2900 3500 
L 3475 3500 
L 3475 0 
L 2900 0 
L 2900 538 
Q 2691 219 2414 64 
Q 2138 -91 1772 -91 
Q 1169 -91 856 284 
Q 544 659 544 1381 
z
M 1991 3584 
L 1991 3584 
z
" transform="scale(0.015625)"/>
       <path id="DejaVuSans-5c" d="M 2059 -325 
Q 1816 -950 1584 -1140 
Q 1353 -1331 966 -1331 
L 506 -1331 
L 506 -850 
L 844 -850 
Q 1081 -850 1212 -737 
Q 1344 -625 1503 -206 
L 1606 56 
L 191 3500 
L 800 3500 
L 1894 763 
L 2988 3500 
L 3597 3500 
L 2059 -325 
z
" transform="scale(0.015625)"/>
      </defs>
      <use xlink:href="#DejaVuSans-56"/>
      <use xlink:href="#DejaVuSans-48" transform="translate(52.09375 0)"/>
      <use xlink:href="#DejaVuSans-50" transform="translate(113.625 0)"/>
      <use xlink:href="#DejaVuSans-44" transform="translate(211.03125 0)"/>
      <use xlink:href="#DejaVuSans-51" transform="translate(272.3125 0)"/>
      <use xlink:href="#DejaVuSans-57" transform="translate(335.6875 0)"/>
      <use xlink:href="#DejaVuSans-4c" transform="translate(374.890625 0)"/>
      <use xlink:href="#DejaVuSans-46" transform="translate(402.671875 0)"/>
      <use xlink:href="#DejaVuSans-42" transform="translate(457.65625 0)"/>
      <use xlink:href="#DejaVuSans-44" transform="translate(507.65625 0)"/>
      <use xlink:href="#DejaVuSans-46" transform="translate(568.9375 0)"/>
      <use xlink:href="#DejaVuSans-46" transform="translate(623.921875 0)"/>
      <use xlink:href="#DejaVuSans-58" transform="translate(678.90625 0)"/>
      <use xlink:href="#DejaVuSans-55" transform="translate(742.28125 0)"/>
      <use xlink:href="#DejaVuSans-44" transform="translate(783.390625 0)"/>
      <use xlink:href="#DejaVuSans-46" transform="translate(844.671875 0)"/>
      <use xlink:href="#DejaVuSans-5c" transform="translate(899.65625 0)"/>
     </g>
    </g>
    <g id="patch_15">
     <path d="M 159.041406 56.399531 
L 171.041406 56.399531 
L 171.041406 52.199531 
L 159.041406 52.199531 
z
" style="fill: #ff7f0e"/>
    </g>
    <g id="text_11">
     <!-- parse_validity -->
     <g transform="translate(175.841406 56.399531) scale(0.06 -0.06)">
      <defs>
       <path id="DejaVuSans-59" d="M 191 3500 
L 800 3500 
L 1894 563 
L 2988 3500 
L 3597 3500 
L 2284 0 
L 1503 0 
L 191 3500 
z
" transform="scale(0.015625)"/>
       <path id="DejaVuSans-4f" d="M 603 4863 
L 1178 4863 
L 1178 0 
L 603 0 
L 603 4863 
z
" transform="scale(0.015625)"/>
       <path id="DejaVuSans-47" d="M 2906 2969 
L 2906 4863 
L 3481 4863 
L 3481 0 
L 2906 0 
L 2906 525 
Q 2725 213 2448 61 
Q 2172 -91 1784 -91 
Q 1150 -91 751 415 
Q 353 922 353 1747 
Q 353 2572 751 3078 
Q 1150 3584 1784 3584 
Q 2172 3584 2448 3432 
Q 2725 3281 2906 2969 
z
M 947 1747 
Q 947 1113 1208 752 
Q 1469 391 1925 391 
Q 2381 391 2643 752 
Q 2906 1113 2906 1747 
Q 2906 2381 2643 2742 
Q 2381 3103 1925 3103 
Q 1469 3103 1208 2742 
Q 947 2381 947 1747 
z
" transform="scale(0.015625)"/>
      </defs>
      <use xlink:href="#DejaVuSans-53"/>
      <use xlink:href="#DejaVuSans-44" transform="translate(63.484375 0)"/>
      <use xlink:href="#DejaVuSans-55" transform="translate(124.765625 0)"/>
      <use xlink:href="#DejaVuSans-56" transform="translate(165.875 0)"/>
      <use xlink:href="#DejaVuSans-48" transform="translate(217.96875 0)"/>
      <use xlink:href="#DejaVuSans-42" transform="translate(279.5 0)"/>
      <use xlink:href="#DejaVuSans-59" transform="translate(329.5 0)"/>
      <use xlink:href="#DejaVuSans-44" transform="translate(388.6875 0)"/>
      <use xlink:href="#DejaVuSans-4f" transform="translate(449.96875 0)"/>
      <use xlink:href="#DejaVuSans-4c" transform="translate(477.75 0)"/>
      <use xlink:href="#DejaVuSans-47" transform="translate(505.53125 0)"/>
      <use xlink:href="#DejaVuSans-4c" transform="translate(569.015625 0)"/>
      <use xlink:href="#DejaVuSans-57" transform="translate(596.796875 0)"/>
      <use xlink:href="#DejaVuSans-5c" transform="translate(636 0)"/>
     </g>
    </g>
    <g id="patch_16">
     <path d="M 159.041406 65.4 
L 171.041406 65.4 
L 171.041406 61.2 
L 159.041406 61.2 
z
" style="fill: #2ca02c"/>
    </g>
    <g id="text_12">
     <!-- op-selection -->
     <g transform="translate(175.841406 65.4) scale(0.06 -0.06)">
      <defs>
       <path id="DejaVuSans-10" d="M 313 2009 
L 1997 2009 
L 1997 1497 
L 313 1497 
L 313 2009 
z
" transform="scale(0.015625)"/>
      </defs>
      <use xlink:href="#DejaVuSans-52"/>
      <use xlink:href="#DejaVuSans-53" transform="translate(61.1875 0)"/>
      <use xlink:href="#DejaVuSans-10" transform="translate(124.671875 0)"/>
      <use xlink:href="#DejaVuSans-56" transform="translate(160.75 0)"/>
      <use xlink:href="#DejaVuSans-48" transform="translate(212.84375 0)"/>
      <use xlink:href="#DejaVuSans-4f" transform="translate(274.375 0)"/>
      <use xlink:href="#DejaVuSans-48" transform="translate(302.15625 0)"/>
      <use xlink:href="#DejaVuSans-46" transform="translate(363.6875 0)"/>
      <use xlink:href="#DejaVuSans-57" transform="translate(418.671875 0)"/>
      <use xlink:href="#DejaVuSans-4c" transform="translate(457.875 0)"/>
      <use xlink:href="#DejaVuSans-52" transform="translate(485.65625 0)"/>
      <use xlink:href="#DejaVuSans-51" transform="translate(546.84375 0)"/>
     </g>
    </g>
    <g id="patch_17">
     <path d="M 245.372031 47.399063 
L 257.372031 47.399063 
L 257.372031 43.199063 
L 245.372031 43.199063 
z
" style="fill: #d62728"/>
    </g>
    <g id="text_13">
     <!-- selector-resolution -->
     <g transform="translate(262.172031 47.399063) scale(0.06 -0.06)">
      <use xlink:href="#DejaVuSans-56"/>
      <use xlink:href="#DejaVuSans-48" transform="translate(52.09375 0)"/>
      <use xlink:href="#DejaVuSans-4f" transform="translate(113.625 0)"/>
      <use xlink:href="#DejaVuSans-48" transform="translate(141.40625 0)"/>
      <use xlink:href="#DejaVuSans-46" transform="translate(202.9375 0)"/>
      <use xlink:href="#DejaVuSans-57" transform="translate(257.921875 0)"/>
      <use xlink:href="#DejaVuSans-52" transform="translate(297.125 0)"/>
      <use xlink:href="#DejaVuSans-55" transform="translate(358.3125 0)"/>
      <use xlink:href="#DejaVuSans-10" transform="translate(393.03125 0)"/>
      <use xlink:href="#DejaVuSans-55" transform="translate(429.109375 0)"/>
      <use xlink:href="#DejaVuSans-48" transform="translate(468.015625 0)"/>
      <use xlink:href="#DejaVuSans-56" transform="translate(529.546875 0)"/>
      <use xlink:href="#DejaVuSans-52" transform="translate(581.640625 0)"/>
      <use xlink:href="#DejaVuSans-4f" transform="translate(642.828125 0)"/>
      <use xlink:href="#DejaVuSans-58" transform="translate(670.609375 0)"/>
      <use xlink:href="#DejaVuSans-57" transform="translate(733.984375 0)"/>
      <use xlink:href="#DejaVuSans-4c" transform="translate(773.1875 0)"/>
      <use xlink:href="#DejaVuSans-52" transform="translate(800.96875 0)"/>
      <use xlink:href="#DejaVuSans-51" transform="translate(862.15625 0)"/>
     </g>
    </g>
    <g id="patch_18">
     <path d="M 245.372031 56.399531 
L 257.372031 56.399531 
L 257.372031 52.199531 
L 245.372031 52.199531 
z
" style="fill: #9467bd"/>
    </g>
    <g id="text_14">
     <!-- arg-extraction -->
     <g transform="translate(262.172031 56.399531) scale(0.06 -0.06)">
      <defs>
       <path id="DejaVuSans-4a" d="M 2906 1791 
Q 2906 2416 2648 2759 
Q 2391 3103 1925 3103 
Q 1463 3103 1205 2759 
Q 947 2416 947 1791 
Q 947 1169 1205 825 
Q 1463 481 1925 481 
Q 2391 481 2648 825 
Q 2906 1169 2906 1791 
z
M 3481 434 
Q 3481 -459 3084 -895 
Q 2688 -1331 1869 -1331 
Q 1566 -1331 1297 -1286 
Q 1028 -1241 775 -1147 
L 775 -588 
Q 1028 -725 1275 -790 
Q 1522 -856 1778 -856 
Q 2344 -856 2625 -561 
Q 2906 -266 2906 331 
L 2906 616 
Q 2728 306 2450 153 
Q 2172 0 1784 0 
Q 1141 0 747 490 
Q 353 981 353 1791 
Q 353 2603 747 3093 
Q 1141 3584 1784 3584 
Q 2172 3584 2450 3431 
Q 2728 3278 2906 2969 
L 2906 3500 
L 3481 3500 
L 3481 434 
z
" transform="scale(0.015625)"/>
       <path id="DejaVuSans-5b" d="M 3513 3500 
L 2247 1797 
L 3578 0 
L 2900 0 
L 1881 1375 
L 863 0 
L 184 0 
L 1544 1831 
L 300 3500 
L 978 3500 
L 1906 2253 
L 2834 3500 
L 3513 3500 
z
" transform="scale(0.015625)"/>
      </defs>
      <use xlink:href="#DejaVuSans-44"/>
      <use xlink:href="#DejaVuSans-55" transform="translate(61.28125 0)"/>
      <use xlink:href="#DejaVuSans-4a" transform="translate(100.640625 0)"/>
      <use xlink:href="#DejaVuSans-10" transform="translate(164.125 0)"/>
      <use xlink:href="#DejaVuSans-48" transform="translate(200.203125 0)"/>
      <use xlink:href="#DejaVuSans-5b" transform="translate(259.984375 0)"/>
      <use xlink:href="#DejaVuSans-57" transform="translate(319.171875 0)"/>
      <use xlink:href="#DejaVuSans-55" transform="translate(358.375 0)"/>
      <use xlink:href="#DejaVuSans-44" transform="translate(399.484375 0)"/>
      <use xlink:href="#DejaVuSans-46" transform="translate(460.765625 0)"/>
      <use xlink:href="#DejaVuSans-57" transform="translate(515.75 0)"/>
      <use xlink:href="#DejaVuSans-4c" transform="translate(554.953125 0)"/>
      <use xlink:href="#DejaVuSans-52" transform="translate(582.734375 0)"/>
      <use xlink:href="#DejaVuSans-51" transform="translate(643.921875 0)"/>
     </g>
    </g>
    <g id="patch_19">
     <path d="M 245.372031 65.4 
L 257.372031 65.4 
L 257.372031 61.2 
L 245.372031 61.2 
z
" style="fill: #8c564b"/>
    </g>
    <g id="text_15">
     <!-- multi-op -->
     <g transform="translate(262.172031 65.4) scale(0.06 -0.06)">
      <use xlink:href="#DejaVuSans-50"/>
      <use xlink:href="#DejaVuSans-58" transform="translate(97.40625 0)"/>
      <use xlink:href="#DejaVuSans-4f" transform="translate(160.78125 0)"/>
      <use xlink:href="#DejaVuSans-57" transform="translate(188.5625 0)"/>
      <use xlink:href="#DejaVuSans-4c" transform="translate(227.765625 0)"/>
      <use xlink:href="#DejaVuSans-10" transform="translate(255.546875 0)"/>
      <use xlink:href="#DejaVuSans-52" transform="translate(293.484375 0)"/>
      <use xlink:href="#DejaVuSans-53" transform="translate(354.671875 0)"/>
     </g>
    </g>
   </g>
  </g>
  <g id="axes_2">
   <g id="patch_20">
    <path d="M 378.903906 270.288 
L 657.903906 270.288 
L 657.903906 37.44 
L 378.903906 37.44 
z
" style="fill: #ffffff"/>
   </g>
   <g id="patch_21">
    <path d="M 391.585724 270.288 
L 433.858452 270.288 
L 433.858452 270.288 
L 391.585724 270.288 
z
" clip-path="url(#p85fdd601a5)" style="fill: #1f77b4"/>
   </g>
   <g id="patch_22">
    <path d="M 433.858452 270.288 
L 476.131179 270.288 
L 476.131179 48.528 
L 433.858452 48.528 
z
" clip-path="url(#p85fdd601a5)" style="fill: #ff7f0e"/>
   </g>
   <g id="patch_23">
    <path d="M 476.131179 270.288 
L 518.403906 270.288 
L 518.403906 159.408 
L 476.131179 159.408 
z
" clip-path="url(#p85fdd601a5)" style="fill: #2ca02c"/>
   </g>
   <g id="patch_24">
    <path d="M 518.403906 270.288 
L 560.676634 270.288 
L 560.676634 242.568 
L 518.403906 242.568 
z
" clip-path="url(#p85fdd601a5)" style="fill: #d62728"/>
   </g>
   <g id="patch_25">
    <path d="M 560.676634 270.288 
L 602.949361 270.288 
L 602.949361 187.128 
L 560.676634 187.128 
z
" clip-path="url(#p85fdd601a5)" style="fill: #9467bd"/>
   </g>
   <g id="patch_26">
    <path d="M 602.949361 270.288 
L 645.222088 270.288 
L 645.222088 187.128 
L 602.949361 187.128 
z
" clip-path="url(#p85fdd601a5)" style="fill: #8c564b"/>
   </g>
   <g id="matplotlib.axis_3">
    <g id="xtick_2">
     <g id="line2d_14">
      <g>
       <use xlink:href="#m5f62a9a42e" x="518.403906" y="270.288" style="stroke: #000000; stroke-width: 0.8"/>
      </g>
     </g>
     <g id="text_16">
      <!-- 0.5B -->
      <g transform="translate(509.298281 283.366125) scale(0.08 -0.08)">
       <use xlink:href="#DejaVuSans-13"/>
       <use xlink:href="#DejaVuSans-11" transform="translate(63.625 0)"/>
       <use xlink:href="#DejaVuSans-18" transform="translate(95.40625 0)"/>
       <use xlink:href="#DejaVuSans-25" transform="translate(159.03125 0)"/>
      </g>
     </g>
    </g>
   </g>
   <g id="matplotlib.axis_4">
    <g id="ytick_7">
     <g id="line2d_15">
      <path d="M 378.903906 270.288 
L 657.903906 270.288 
" clip-path="url(#p85fdd601a5)" style="fill: none; stroke: #b0b0b0; stroke-opacity: 0.3; stroke-width: 0.8; stroke-linecap: square"/>
     </g>
     <g id="line2d_16">
      <g>
       <use xlink:href="#m2cf3505a25" x="378.903906" y="270.288" style="stroke: #000000; stroke-width: 0.8"/>
      </g>
     </g>
    </g>
    <g id="ytick_8">
     <g id="line2d_17">
      <path d="M 378.903906 225.936 
L 657.903906 225.936 
" clip-path="url(#p85fdd601a5)" style="fill: none; stroke: #b0b0b0; stroke-opacity: 0.3; stroke-width: 0.8; stroke-linecap: square"/>
     </g>
     <g id="line2d_18">
      <g>
       <use xlink:href="#m2cf3505a25" x="378.903906" y="225.936" style="stroke: #000000; stroke-width: 0.8"/>
      </g>
     </g>
    </g>
    <g id="ytick_9">
     <g id="line2d_19">
      <path d="M 378.903906 181.584 
L 657.903906 181.584 
" clip-path="url(#p85fdd601a5)" style="fill: none; stroke: #b0b0b0; stroke-opacity: 0.3; stroke-width: 0.8; stroke-linecap: square"/>
     </g>
     <g id="line2d_20">
      <g>
       <use xlink:href="#m2cf3505a25" x="378.903906" y="181.584" style="stroke: #000000; stroke-width: 0.8"/>
      </g>
     </g>
    </g>
    <g id="ytick_10">
     <g id="line2d_21">
      <path d="M 378.903906 137.232 
L 657.903906 137.232 
" clip-path="url(#p85fdd601a5)" style="fill: none; stroke: #b0b0b0; stroke-opacity: 0.3; stroke-width: 0.8; stroke-linecap: square"/>
     </g>
     <g id="line2d_22">
      <g>
       <use xlink:href="#m2cf3505a25" x="378.903906" y="137.232" style="stroke: #000000; stroke-width: 0.8"/>
      </g>
     </g>
    </g>
    <g id="ytick_11">
     <g id="line2d_23">
      <path d="M 378.903906 92.88 
L 657.903906 92.88 
" clip-path="url(#p85fdd601a5)" style="fill: none; stroke: #b0b0b0; stroke-opacity: 0.3; stroke-width: 0.8; stroke-linecap: square"/>
     </g>
     <g id="line2d_24">
      <g>
       <use xlink:href="#m2cf3505a25" x="378.903906" y="92.88" style="stroke: #000000; stroke-width: 0.8"/>
      </g>
     </g>
    </g>
    <g id="ytick_12">
     <g id="line2d_25">
      <path d="M 378.903906 48.528 
L 657.903906 48.528 
" clip-path="url(#p85fdd601a5)" style="fill: none; stroke: #b0b0b0; stroke-opacity: 0.3; stroke-width: 0.8; stroke-linecap: square"/>
     </g>
     <g id="line2d_26">
      <g>
       <use xlink:href="#m2cf3505a25" x="378.903906" y="48.528" style="stroke: #000000; stroke-width: 0.8"/>
      </g>
     </g>
    </g>
   </g>
   <g id="patch_27">
    <path d="M 378.903906 270.288 
L 378.903906 37.44 
" style="fill: none; stroke: #000000; stroke-width: 0.8; stroke-linejoin: miter; stroke-linecap: square"/>
   </g>
   <g id="patch_28">
    <path d="M 657.903906 270.288 
L 657.903906 37.44 
" style="fill: none; stroke: #000000; stroke-width: 0.8; stroke-linejoin: miter; stroke-linecap: square"/>
   </g>
   <g id="patch_29">
    <path d="M 378.903906 270.288 
L 657.903906 270.288 
" style="fill: none; stroke: #000000; stroke-width: 0.8; stroke-linejoin: miter; stroke-linecap: square"/>
   </g>
   <g id="patch_30">
    <path d="M 378.903906 37.44 
L 657.903906 37.44 
" style="fill: none; stroke: #000000; stroke-width: 0.8; stroke-linejoin: miter; stroke-linecap: square"/>
   </g>
   <g id="text_17">
    <!-- scaffolded -->
    <g transform="translate(487.520781 31.44) scale(0.12 -0.12)">
     <defs>
      <path id="DejaVuSans-13ae" d="M 4531 4863 
L 4531 4384 
L 3981 4384 
Q 3672 4384 3551 4259 
Q 3431 4134 3431 3809 
L 3431 3500 
L 4378 3500 
L 4378 3053 
L 3431 3053 
L 3431 0 
L 2853 0 
L 2853 3053 
L 1275 3053 
L 1275 0 
L 697 0 
L 697 3053 
L 147 3053 
L 147 3500 
L 697 3500 
L 697 3744 
Q 697 4328 969 4595 
Q 1241 4863 1831 4863 
L 2375 4863 
L 2375 4384 
L 1825 4384 
Q 1516 4384 1394 4259 
Q 1275 4134 1275 3809 
L 1275 3500 
L 2853 3500 
L 2853 3744 
Q 2853 4328 3125 4595 
Q 3397 4863 3988 4863 
L 4531 4863 
z
" transform="scale(0.015625)"/>
     </defs>
     <use xlink:href="#DejaVuSans-56"/>
     <use xlink:href="#DejaVuSans-46" transform="translate(52.09375 0)"/>
     <use xlink:href="#DejaVuSans-44" transform="translate(107.078125 0)"/>
     <use xlink:href="#DejaVuSans-13ae" transform="translate(168.359375 0)"/>
     <use xlink:href="#DejaVuSans-52" transform="translate(237.25 0)"/>
     <use xlink:href="#DejaVuSans-4f" transform="translate(298.4375 0)"/>
     <use xlink:href="#DejaVuSans-47" transform="translate(326.21875 0)"/>
     <use xlink:href="#DejaVuSans-48" transform="translate(389.703125 0)"/>
     <use xlink:href="#DejaVuSans-47" transform="translate(451.234375 0)"/>
    </g>
   </g>
  </g>
  <g id="text_18">
   <!-- identity — accuracy, parse validity and per-task scores -->
   <g transform="translate(176.259531 16.318125) scale(0.12 -0.12)">
    <defs>
     <path id="DejaVuSans-3" transform="scale(0.015625)"/>
     <path id="DejaVuSans-af6" d="M 313 1978 
L 6088 1978 
L 6088 1528 
L 313 1528 
L 313 1978 
z
" transform="scale(0.015625)"/>
     <path id="DejaVuSans-f" d="M 750 794 
L 1409 794 
L 1409 256 
L 897 -744 
L 494 -744 
L 750 256 
L 750 794 
z
" transform="scale(0.015625)"/>
     <path id="DejaVuSans-4e" d="M 581 4863 
L 1159 4863 
L 1159 1991 
L 2875 3500 
L 3609 3500 
L 1753 1863 
L 3688 0 
L 2938 0 
L 1159 1709 
L 1159 0 
L 581 0 
L 581 4863 
z
" transform="scale(0.015625)"/>
    </defs>
    <use xlink:href="#DejaVuSans-4c"/>
    <use xlink:href="#DejaVuSans-47" transform="translate(27.78125 0)"/>
    <use xlink:href="#DejaVuSans-48" transform="translate(91.265625 0)"/>
    <use xlink:href="#DejaVuSans-51" transform="translate(152.796875 0)"/>
    <use xlink:href="#DejaVuSans-57" transform="translate(216.171875 0)"/>
    <use xlink:href="#DejaVuSans-4c" transform="translate(255.375 0)"/>
    <use xlink:href="#DejaVuSans-57" transform="translate(283.15625 0)"/>
    <use xlink:href="#DejaVuSans-5c" transform="translate(322.359375 0)"/>
    <use xlink:href="#DejaVuSans-3" transform="translate(381.546875 0)"/>
    <use xlink:href="#DejaVuSans-af6" transform="translate(413.328125 0)"/>
    <use xlink:href="#DejaVuSans-3" transform="translate(513.328125 0)"/>
    <use xlink:href="#DejaVuSans-44" transform="translate(545.109375 0)"/>
    <use xlink:href="#DejaVuSans-46" transform="translate(606.390625 0)"/>
    <use xlink:href="#DejaVuSans-46" transform="translate(661.375 0)"/>
    <use xlink:href="#DejaVuSans-58" transform="translate(716.359375 0)"/>
    <use xlink:href="#DejaVuSans-55" transform="translate(779.734375 0)"/>
    <use xlink:href="#DejaVuSans-44" transform="translate(820.84375 0)"/>
    <use xlink:href="#DejaVuSans-46" transform="translate(882.125 0)"/>
    <use xlink:href="#DejaVuSans-5c" transform="translate(937.109375 0)"/>
    <use xlink:href="#DejaVuSans-f" transform="translate(996.296875 0)"/>
    <use xlink:href="#DejaVuSans-3" transform="translate(1028.078125 0)"/>
    <use xlink:href="#DejaVuSans-53" transform="translate(1059.859375 0)"/>
    <use xlink:href="#DejaVuSans-44" transform="translate(1123.34375 0)"/>
    <use xlink:href="#DejaVuSans-55" transform="translate(1184.625 0)"/>
    <use xlink:href="#DejaVuSans-56" transform="translate(1225.734375 0)"/>
    <use xlink:href="#DejaVuSans-48" transform="translate(1277.828125 0)"/>
    <use xlink:href="#DejaVuSans-3" transform="translate(1339.359375 0)"/>
    <use xlink:href="#DejaVuSans-59" transform="translate(1371.140625 0)"/>
    <use xlink:href="#DejaVuSans-44" transform="translate(1430.328125 0)"/>
    <use xlink:href="#DejaVuSans-4f" transform="translate(1491.609375 0)"/>
    <use xlink:href="#DejaVuSans-4c" transform="translate(1519.390625 0)"/>
    <use xlink:href="#DejaVuSans-47" transform="translate(1547.171875 0)"/>
    <use xlink:href="#DejaVuSans-4c" transform="translate(1610.65625 0)"/>
    <use xlink:href="#DejaVuSans-57" transform="translate(1638.4375 0)"/>
    <use xlink:href="#DejaVuSans-5c" transform="translate(1677.640625 0)"/>
    <use xlink:href="#DejaVuSans-3" transform="translate(1736.828125 0)"/>
    <use xlink:href="#DejaVuSans-44" transform="translate(1768.609375 0)"/>
    <use xlink:href="#DejaVuSans-51" transform="translate(1829.890625 0)"/>
    <use xlink:href="#DejaVuSans-47" transform="translate(1893.265625 0)"/>
    <use xlink:href="#DejaVuSans-3" transform="translate(1956.75 0)"/>
    <use xlink:href="#DejaVuSans-53" transform="translate(1988.53125 0)"/>
    <use xlink:href="#DejaVuSans-48" transform="translate(2052.015625 0)"/>
    <use xlink:href="#DejaVuSans-55" transform="translate(2113.546875 0)"/>
    <use xlink:href="#DejaVuSans-10" transform="translate(2148.265625 0)"/>
    <use xlink:href="#DejaVuSans-57" transform="translate(2184.34375 0)"/>
    <use xlink:href="#DejaVuSans-44" transform="translate(2223.546875 0)"/>
    <use xlink:href="#DejaVuSans-56" transform="translate(2284.828125 0)"/>
    <use xlink:href="#DejaVuSans-4e" transform="translate(2336.921875 0)"/>
    <use xlink:href="#DejaVuSans-3" transform="translate(2394.828125 0)"/>
    <use xlink:href="#DejaVuSans-56" transform="translate(2426.609375 0)"/>
    <use xlink:href="#DejaVuSans-46" transform="translate(2478.703125 0)"/>
    <use xlink:href="#DejaVuSans-52" transform="translate(2533.6875 0)"/>
    <use xlink:href="#DejaVuSans-55" transform="translate(2594.875 0)"/>
    <use xlink:href="#DejaVuSans-48" transform="translate(2633.78125 0)"/>
    <use xlink:href="#DejaVuSans-56" transform="translate(2695.3125 0)"/>
   </g>
  </g>
 </g>
 <defs>
  <clipPath id="pca32ec2b2d">
   <rect x="44.103906" y="37.44" width="279" height="232.848"/>
  </clipPath>
  <clipPath id="p85fdd601a5">
   <rect x="378.903906" y="37.44" width="279" height="232.848"/>
  </clipPath>
 </defs>
</svg>
